<svg width="900" height="260" viewBox="0 0 900 260" fill="none" xmlns="http://www.w3.org/2000/svg">
  <defs>
    <linearGradient id="fondo" x1="0" y1="0" x2="900" y2="260" gradientUnits="userSpaceOnUse">
      <stop stop-color="#46236b"></stop>
      <stop offset="1" stop-color="#f6f4fa"></stop>
    </linearGradient>
    <linearGradient id="linea1" x1="0" y1="200" x2="900" y2="60" gradientUnits="userSpaceOnUse">
      <stop stop-color="#fff" stop-opacity="0"></stop>
      <stop offset="0.4" stop-color="#00b2ff" stop-opacity="0.19"></stop>
      <stop offset="1" stop-color="#fff" stop-opacity="0"></stop>
    </linearGradient>
    <linearGradient id="linea2" x1="0" y1="230" x2="900" y2="110" gradientUnits="userSpaceOnUse">
      <stop stop-color="#fff" stop-opacity="0"></stop>
      <stop offset="0.6" stop-color="#46236b" stop-opacity="0.13"></stop>
      <stop offset="1" stop-color="#fff" stop-opacity="0"></stop>
    </linearGradient>
  </defs>
  <rect width="900" height="260" fill="url(#fondo)" rx="34"></rect>
  <ellipse cx="180" cy="220" rx="110" ry="38" fill="#fff" fill-opacity="0.09"></ellipse>
  <ellipse cx="830" cy="70" rx="70" ry="25" fill="#fff" fill-opacity="0.13"></ellipse>
  <ellipse cx="720" cy="190" rx="42" ry="16" fill="#fff" fill-opacity="0.09"></ellipse>
  <ellipse cx="420" cy="55" rx="65" ry="22" fill="#fff" fill-opacity="0.10"></ellipse>
  <path d="M 80 170 Q 180 120 390 175 Q 530 210 720 90" stroke="url(#linea1)" stroke-width="5" fill="none"></path>
  <path d="M 130 210 Q 210 140 560 210 Q 670 230 810 100" stroke="url(#linea2)" stroke-width="3" fill="none"></path>
  <!-- Icono/logo sutil a la derecha -->
  <g>
    <circle cx="765" cy="112" r="33" fill="#fff" fill-opacity="0.10"></circle>
    <circle cx="765" cy="112" r="21" fill="#fff" fill-opacity="0.13"></circle>
    <circle cx="765" cy="112" r="15" fill="#00b2ff" fill-opacity="0.22"></circle>
    <circle cx="782" cy="95" r="7" fill="#fff" fill-opacity="0.30"></circle>
    <circle cx="776" cy="128" r="5" fill="#fff" fill-opacity="0.28"></circle>
    <rect x="765" y="111" width="30" height="2.7" rx="1.1" fill="#00b2ff" fill-opacity="0.18" transform="rotate(45 765 111)"></rect>
  </g>
</svg>
